<?xml version="1.0" encoding="UTF-8" standalone="no"?>
<svg
   id="Ebene_1"
   data-name="Ebene 1"
   viewBox="0 0 557.91 538.88"
   version="1.1"
   sodipodi:docname="wunschlogo3.svg"
   inkscape:version="1.4.4 (dcaf3e7d9e, 2026-05-05)"
   xmlns:inkscape="http://www.inkscape.org/namespaces/inkscape"
   xmlns:sodipodi="http://sodipodi.sourceforge.net/DTD/sodipodi-0.dtd"
   xmlns="http://www.w3.org/2000/svg"
   xmlns:svg="http://www.w3.org/2000/svg">
  <sodipodi:namedview
     id="namedview61"
     pagecolor="#505050"
     bordercolor="#ffffff"
     borderopacity="1"
     inkscape:showpageshadow="0"
     inkscape:pageopacity="0"
     inkscape:pagecheckerboard="1"
     inkscape:deskcolor="#505050"
     inkscape:zoom="2.6408446"
     inkscape:cx="288.35472"
     inkscape:cy="286.46139"
     inkscape:window-width="1920"
     inkscape:window-height="1211"
     inkscape:window-x="0"
     inkscape:window-y="0"
     inkscape:window-maximized="1"
     inkscape:current-layer="Ebene_1" />
  <defs
     id="defs10">
    <style
       id="style1">
      .cls-1, .cls-2 {
        fill: none;
      }

      .cls-3 {
        fill: #e79955;
      }

      .cls-4, .cls-5 {
        fill: #6d1e60;
      }

      .cls-6 {
        fill: #7a326b;
      }

      .cls-7 {
        fill: #485d34;
      }

      .cls-8 {
        fill: #a67a9d;
      }

      .cls-9 {
        font-size: 29.4px;
      }

      .cls-9, .cls-10, .cls-11, .cls-12, .cls-13, .cls-14, .cls-15, .cls-16, .cls-17 {
        fill: #007b80;
      }

      .cls-9, .cls-10, .cls-11, .cls-12, .cls-13, .cls-14, .cls-15, .cls-16, .cls-17, .cls-18, .cls-5, .cls-19 {
        font-family: MuseoSansRounded-1000, 'Museo Sans Rounded';
      }

      .cls-10 {
        font-size: 29.4px;
      }

      .cls-11 {
        font-size: 29.4px;
      }

      .cls-12 {
        font-size: 29.4px;
      }

      .cls-13 {
        font-size: 29.4px;
      }

      .cls-14 {
        font-size: 29.4px;
      }

      .cls-15 {
        font-size: 29.4px;
      }

      .cls-16 {
        font-size: 29.4px;
      }

      .cls-17 {
        font-size: 29.4px;
      }

      .cls-20 {
        fill: #91a627;
      }

      .cls-2 {
        stroke: #fff;
        stroke-width: 37px;
      }

      .cls-18 {
        font-size: 27.44px;
      }

      .cls-18, .cls-21 {
        fill: #003f20;
      }

      .cls-22 {
        clip-path: url(#clippath-11);
      }

      .cls-23 {
        clip-path: url(#clippath-10);
      }

      .cls-24 {
        clip-path: url(#clippath-12);
      }

      .cls-25, .cls-19 {
        fill: #004d2f;
      }

      .cls-26 {
        clip-path: url(#clippath-1);
      }

      .cls-27 {
        clip-path: url(#clippath-3);
      }

      .cls-28 {
        clip-path: url(#clippath-4);
      }

      .cls-29 {
        clip-path: url(#clippath-2);
      }

      .cls-30 {
        clip-path: url(#clippath-9);
      }

      .cls-31 {
        fill: #abb653;
      }

      .cls-32 {
        fill: #cb7818;
      }

      .cls-33 {
        opacity: .84;
      }

      .cls-34 {
        opacity: .71;
      }

      .cls-5 {
        font-size: 105px;
      }

      .cls-35 {
        fill: #27461e;
      }

      .cls-36 {
        letter-spacing: -.15em;
      }

      .cls-19 {
        font-size: 27.44px;
      }

      .cls-37 {
        clip-path: url(#clippath);
      }

      .cls-38 {
        fill: #003d1f;
      }

      .cls-39 {
        fill: #e3893e;
      }
    </style>
    <clipPath
       id="clippath-2">
      <rect
         class="cls-1"
         x="88"
         y="213.87"
         width="385.53"
         height="190.37"
         id="rect3" />
    </clipPath>
    <clipPath
       id="clippath-3">
      <path
         class="cls-1"
         d="M101,214.87c-6.63,0-12,5.37-12,12v164.37c0,5.13,3.22,9.51,7.75,11.23h368.03c4.53-1.72,7.75-6.09,7.75-11.23v-164.37c0-6.63-5.37-12-12-12H101Z"
         id="path3" />
    </clipPath>
    <clipPath
       id="clippath-4">
      <rect
         class="cls-1"
         x="88.77"
         y="213.78"
         width="384.85"
         height="188.67"
         id="rect4" />
    </clipPath>
    <clipPath
       id="clippath-5">
      <rect
         class="cls-1"
         x="89.85"
         y="214.87"
         width="382.68"
         height="186.52"
         id="rect5" />
    </clipPath>
    <clipPath
       id="clippath-7">
      <rect
         class="cls-1"
         x="89.85"
         y="214.87"
         width="382.68"
         height="186.52"
         id="rect6" />
    </clipPath>
    <clipPath
       id="clippath-9">
      <rect
         class="cls-1"
         x="89.85"
         y="214.87"
         width="382.68"
         height="186.52"
         id="rect7" />
    </clipPath>
    <clipPath
       id="clippath-10">
      <rect
         class="cls-1"
         width="557.91"
         height="538.88"
         id="rect8" />
    </clipPath>
    <clipPath
       id="clippath-11">
      <rect
         class="cls-1"
         x="89.85"
         y="214.87"
         width="382.68"
         height="186.52"
         id="rect9" />
    </clipPath>
    <clipPath
       id="clippath-12">
      <rect
         class="cls-1"
         x="89.85"
         y="214.87"
         width="382.68"
         height="186.52"
         id="rect10" />
    </clipPath>
    <clipPath
       clipPathUnits="userSpaceOnUse"
       id="clipPath61">
      <rect
         class="cls-1"
         x="89.849998"
         y="214.87"
         width="382.67999"
         height="186.52"
         id="rect61" />
    </clipPath>
    <clipPath
       clipPathUnits="userSpaceOnUse"
       id="clipPath62">
      <rect
         class="cls-1"
         x="89.849998"
         y="214.87"
         width="382.67999"
         height="186.52"
         id="rect62" />
    </clipPath>
    <clipPath
       clipPathUnits="userSpaceOnUse"
       id="clipPath63">
      <rect
         class="cls-1"
         x="89.849998"
         y="214.87"
         width="382.67999"
         height="186.52"
         id="rect63" />
    </clipPath>
    <clipPath
       clipPathUnits="userSpaceOnUse"
       id="clipPath64">
      <rect
         class="cls-1"
         x="89.849998"
         y="214.87"
         width="382.67999"
         height="186.52"
         id="rect64" />
    </clipPath>
    <clipPath
       clipPathUnits="userSpaceOnUse"
       id="clipPath65">
      <rect
         class="cls-1"
         x="89.849998"
         y="214.87"
         width="382.67999"
         height="186.52"
         id="rect65" />
    </clipPath>
    <clipPath
       clipPathUnits="userSpaceOnUse"
       id="clipPath66">
      <rect
         class="cls-1"
         x="89.849998"
         y="214.87"
         width="382.67999"
         height="186.52"
         id="rect66" />
    </clipPath>
    <clipPath
       clipPathUnits="userSpaceOnUse"
       id="clipPath67">
      <rect
         class="cls-1"
         x="89.849998"
         y="214.87"
         width="382.67999"
         height="186.52"
         id="rect67" />
    </clipPath>
    <clipPath
       clipPathUnits="userSpaceOnUse"
       id="clipPath68">
      <rect
         class="cls-1"
         x="89.849998"
         y="214.87"
         width="382.67999"
         height="186.52"
         id="rect68" />
    </clipPath>
    <clipPath
       clipPathUnits="userSpaceOnUse"
       id="clipPath69">
      <rect
         class="cls-1"
         x="89.849998"
         y="214.87"
         width="382.67999"
         height="186.52"
         id="rect69" />
    </clipPath>
  </defs>
  <rect
     style="fill:#0a7a46;fill-opacity:0.49799436;stroke-width:1.111;stroke:#cb7818;stroke-opacity:1;stroke-dasharray:none"
     id="rect70"
     width="383.88"
     height="187.79001"
     x="89.849998"
     y="214.87" />
  <path
     class="cls-21"
     d="m 88.82,392.97 c 0,5.66 2.35,8.48 7.06,8.48 h 8.56 c 4.64,0 6.95,-2.83 6.95,-8.48 v -27.28 c 0,-1.57 -0.05,-3.33 -0.16,-5.29 -0.11,-1.96 -0.23,-3.81 -0.38,-5.55 -0.14,-2.09 -0.29,-4.18 -0.43,-6.27 h 0.21 c 0.64,2 1.35,4 2.14,6 0.64,1.74 1.34,3.61 2.09,5.61 0.75,2 1.51,3.83 2.3,5.48 l 12.73,30.02 c 0.93,2 2.05,3.46 3.37,4.37 1.32,0.91 2.94,1.37 4.87,1.37 h 10.27 c 4.71,0 7.06,-2.83 7.06,-8.48 v -76.89 c 0,-5.66 -2.35,-8.49 -7.06,-8.49 h -8.56 c -4.64,0 -6.96,2.83 -6.96,8.49 v 27.41 c 0,1.57 0.03,3.35 0.11,5.35 0.07,2 0.18,3.87 0.32,5.61 0.14,2.09 0.32,4.18 0.53,6.27 h -0.21 c -0.64,-1.91 -1.36,-3.92 -2.14,-6.01 -0.64,-1.74 -1.34,-3.61 -2.09,-5.61 -0.75,-2 -1.52,-3.87 -2.3,-5.61 l -12.63,-30.15 c -0.93,-2 -2.05,-3.46 -3.37,-4.37 -1.32,-0.91 -2.98,-1.37 -4.98,-1.37 H 95.85 c -4.71,0 -7.06,2.83 -7.06,8.49 v 76.89 z"
     id="path13"
     clip-path="url(#clipPath68)" />
  <path
     class="cls-39"
     d="m 163.44,363.34 2.57,-13.05 c 0.36,-1.57 0.7,-3.37 1.02,-5.42 0.32,-2.04 0.66,-3.94 1.02,-5.68 0.36,-2.09 0.71,-4.18 1.07,-6.27 h 0.21 c 0.36,2.09 0.71,4.18 1.07,6.27 0.36,1.74 0.71,3.64 1.07,5.68 0.36,2.05 0.71,3.85 1.07,5.42 l 2.35,13.05 z m -28.78,28.33 c -0.86,2.96 -0.75,5.33 0.32,7.11 1.07,1.79 2.85,2.68 5.35,2.68 H 149 c 4.07,0 6.63,-2.39 7.7,-7.18 l 1.61,-9.14 h 21.72 l 1.61,9.14 c 1.28,4.79 3.92,7.18 7.92,7.18 h 8.67 c 2.5,0 4.28,-0.89 5.35,-2.68 1.07,-1.78 1.18,-4.15 0.32,-7.11 l -20.86,-77.15 c -1.28,-4.61 -3.92,-6.92 -7.92,-6.92 h -11.66 c -4,0 -6.63,2.31 -7.92,6.92 l -20.86,77.15 z"
     id="path14" />
  <path
     class="cls-35"
     d="m 185.89,373.85 c 1.89,5.96 4.6,11.1 8.13,15.4 3.53,4.31 7.83,7.68 12.89,10.12 5.06,2.43 10.74,3.66 17.01,3.66 3.14,0 6.05,-0.33 8.72,-0.98 2.67,-0.65 5.12,-1.5 7.33,-2.55 2.21,-1.04 4.21,-2.22 5.99,-3.52 1.78,-1.31 3.32,-2.57 4.6,-3.79 1.78,-1.57 2.75,-3.39 2.89,-5.48 0.14,-2.09 -0.39,-4.22 -1.61,-6.4 l -3.74,-6.27 c -1.28,-2.35 -2.75,-3.61 -4.39,-3.79 -1.64,-0.17 -3.42,0.52 -5.35,2.09 -1.86,1.57 -3.94,2.89 -6.26,3.98 -2.32,1.09 -4.69,1.63 -7.12,1.63 -3.35,0 -6.21,-0.74 -8.56,-2.22 -2.35,-1.48 -4.28,-3.37 -5.78,-5.68 -1.5,-2.31 -2.59,-4.9 -3.26,-7.77 -0.68,-2.87 -1.02,-5.7 -1.02,-8.49 0,-2.79 0.3,-5.4 0.91,-8.09 0.6,-2.7 1.64,-5.13 3.1,-7.31 1.46,-2.17 3.39,-3.94 5.78,-5.29 2.39,-1.35 5.37,-2.02 8.93,-2.02 2.07,0 4.12,0.41 6.15,1.24 2.03,0.83 3.98,1.85 5.83,3.07 4.07,2.96 7.24,2.13 9.52,-2.48 l 3.21,-6.53 c 1.21,-2.26 1.71,-4.42 1.5,-6.46 -0.21,-2.04 -1.21,-3.85 -3,-5.42 -2.5,-2 -5.76,-3.92 -9.79,-5.74 -4.03,-1.83 -8.86,-2.74 -14.5,-2.74 -6.06,0 -11.61,1.24 -16.64,3.72 -5.03,2.48 -9.35,5.9 -12.95,10.25 -3.6,4.35 -6.4,9.49 -8.4,15.4 -2,5.92 -3,12.27 -3,19.06 0,6.79 0.94,13.42 2.83,19.39"
     id="path15"
     clip-path="url(#clipPath67)" />
  <path
     class="cls-31"
     d="m 232.08,392.97 c 0,5.66 2.35,8.48 7.06,8.48 h 8.56 c 4.64,0 6.96,-2.83 6.96,-8.48 v -26.24 h 22.47 v 26.24 c 0,5.66 2.32,8.48 6.96,8.48 h 8.67 c 4.64,0 6.95,-2.83 6.95,-8.48 v -76.89 c 0,-5.66 -2.32,-8.49 -6.95,-8.49 h -8.67 c -4.64,0 -6.96,2.83 -6.96,8.49 v 27.28 h -22.47 v -27.28 c 0,-5.66 -2.32,-8.49 -6.96,-8.49 h -8.56 c -4.71,0 -7.06,2.83 -7.06,8.49 z"
     id="path16" />
  <path
     class="cls-4"
     d="m 300.88,379.27 v -14.88 h 8.13 c 2.28,0 3.98,0.78 5.08,2.35 1.11,1.57 1.66,3.22 1.66,4.96 0,1.83 -0.57,3.55 -1.71,5.16 -1.14,1.61 -2.85,2.42 -5.14,2.42 h -8.03 z m 0,-36.82 v -12.66 h 6.31 c 2.07,0 3.51,0.65 4.33,1.96 0.82,1.31 1.23,2.74 1.23,4.31 0,1.31 -0.39,2.7 -1.18,4.18 -0.79,1.48 -2.11,2.22 -3.96,2.22 h -6.74 z m -22.57,50.52 c 0,5.66 2.35,8.48 7.06,8.48 h 21.61 c 3.99,0 7.88,-0.46 11.66,-1.37 3.78,-0.91 7.13,-2.48 10.06,-4.7 2.92,-2.22 5.26,-5.16 7.01,-8.81 1.75,-3.66 2.62,-8.18 2.62,-13.58 0,-1.83 -0.18,-3.76 -0.54,-5.81 -0.36,-2.04 -1,-4 -1.93,-5.87 -0.93,-1.87 -2.14,-3.59 -3.64,-5.16 -1.5,-1.57 -3.39,-2.78 -5.67,-3.65 v -0.26 c 2.92,-2.09 5.1,-5 6.53,-8.75 1.43,-3.74 2.14,-7.44 2.14,-11.1 0,-4.18 -0.68,-7.81 -2.03,-10.9 -1.36,-3.09 -3.26,-5.66 -5.72,-7.7 -2.46,-2.04 -5.4,-3.59 -8.83,-4.63 -3.42,-1.04 -7.21,-1.57 -11.34,-1.57 h -21.93 c -4.71,0 -7.06,2.83 -7.06,8.49 z"
     id="path17" />
  <path
     class="cls-32"
     d="m 346.29,363.34 2.57,-13.05 c 0.36,-1.57 0.7,-3.37 1.02,-5.42 0.32,-2.04 0.66,-3.94 1.02,-5.68 0.36,-2.09 0.71,-4.18 1.07,-6.27 h 0.21 c 0.36,2.09 0.71,4.18 1.07,6.27 0.36,1.74 0.71,3.64 1.07,5.68 0.36,2.05 0.71,3.85 1.07,5.42 l 2.35,13.05 z m -28.78,28.33 c -0.86,2.96 -0.75,5.33 0.32,7.11 1.07,1.79 2.85,2.68 5.35,2.68 h 8.67 c 4.07,0 6.63,-2.39 7.7,-7.18 l 1.61,-9.14 h 21.72 l 1.6,9.14 c 1.28,4.79 3.92,7.18 7.92,7.18 h 8.67 c 2.5,0 4.28,-0.89 5.35,-2.68 1.07,-1.78 1.18,-4.15 0.32,-7.11 l -20.87,-77.15 c -1.28,-4.61 -3.92,-6.92 -7.92,-6.92 h -11.66 c -4,0 -6.63,2.31 -7.92,6.92 l -20.87,77.15 z"
     id="path18" />
  <path
     class="cls-38"
     d="M 388.48,348.98 V 331.1 h 3.42 c 1.21,0 2.3,0.07 3.26,0.2 0.96,0.13 1.87,0.41 2.73,0.85 1.57,0.78 2.53,1.83 2.89,3.13 0.36,1.31 0.54,2.57 0.54,3.79 0,3.57 -0.66,6.11 -1.98,7.64 -1.32,1.52 -3.34,2.28 -6.05,2.28 h -4.82 z m -22.58,43.99 c 0,5.66 2.35,8.48 7.06,8.48 h 8.56 c 4.64,0 6.95,-2.83 6.95,-8.48 v -20.5 h 5.35 l 9.74,22.98 c 1,2.26 2.21,3.83 3.64,4.7 1.43,0.87 2.96,1.3 4.6,1.3 h 9.95 c 2.57,0 4.39,-0.89 5.46,-2.68 1.07,-1.78 0.86,-4.33 -0.64,-7.64 l -9.63,-20.89 c -0.43,-0.96 -0.84,-1.78 -1.23,-2.48 -0.39,-0.7 -0.77,-1.31 -1.12,-1.83 -0.36,-0.61 -0.71,-1.18 -1.07,-1.7 v -0.26 c 1.85,-1.39 3.46,-3.09 4.82,-5.09 1.35,-2 2.46,-4.18 3.32,-6.53 0.86,-2.35 1.5,-4.78 1.93,-7.31 0.43,-2.52 0.64,-4.96 0.64,-7.31 0,-3.48 -0.38,-6.74 -1.12,-9.79 -0.75,-3.04 -1.8,-5.79 -3.16,-8.22 -1.36,-2.43 -2.96,-4.52 -4.82,-6.27 -1.86,-1.74 -3.85,-3.04 -5.99,-3.92 -1.71,-0.7 -3.8,-1.19 -6.26,-1.5 -2.46,-0.3 -5.48,-0.46 -9.04,-0.46 h -20.86 c -4.71,0 -7.06,2.83 -7.06,8.49 v 76.89 z"
     id="path19" />
  <path
     class="cls-6"
     d="m 406.48,392.97 c 0,5.66 2.35,8.48 7.06,8.48 h 8.56 c 4.64,0 6.95,-2.83 6.95,-8.48 v -27.28 c 0,-1.57 -0.05,-3.33 -0.16,-5.29 -0.11,-1.96 -0.23,-3.81 -0.38,-5.55 -0.14,-2.09 -0.29,-4.18 -0.43,-6.27 h 0.21 c 0.64,2 1.35,4 2.14,6 0.64,1.74 1.34,3.61 2.09,5.61 0.75,2 1.51,3.83 2.3,5.48 l 12.73,30.02 c 0.93,2 2.05,3.46 3.37,4.37 1.32,0.91 2.94,1.37 4.87,1.37 h 10.27 c 4.71,0 7.06,-2.83 7.06,-8.48 v -76.89 c 0,-5.66 -2.35,-8.49 -7.06,-8.49 h -8.56 c -4.64,0 -6.95,2.83 -6.95,8.49 v 27.41 c 0,1.57 0.03,3.35 0.11,5.35 0.07,2 0.18,3.87 0.32,5.61 0.14,2.09 0.32,4.18 0.54,6.27 h -0.21 c -0.64,-1.91 -1.36,-3.92 -2.14,-6.01 -0.64,-1.74 -1.34,-3.61 -2.09,-5.61 -0.75,-2 -1.52,-3.87 -2.3,-5.61 l -12.63,-30.15 c -0.93,-2 -2.05,-3.46 -3.37,-4.37 -1.32,-0.91 -2.98,-1.37 -4.97,-1.37 h -10.27 c -4.71,0 -7.06,2.83 -7.06,8.49 v 76.89 z"
     id="path20" />
  <text
     class="cls-5"
     transform="scale(0.90535746,1.1045361)"
     id="text21"
     x="85.159737"
     y="276.65912"
     style="stroke-width:1.10454;fill:#0a7a46;fill-opacity:1"><tspan
       class="cls-36"
       x="85.159737"
       y="276.65912"
       xml:space="preserve"
       id="tspan20"
       style="stroke-width:1.10454;fill:#0a7a46;fill-opacity:1">  </tspan><tspan
       x="108.35499"
       y="276.65912"
       id="tspan21"
       style="stroke-width:1.10454;fill:#0a7a46;fill-opacity:1" /></text>
  <path
     class="cls-4"
     d="m 123.49,298.28 c 1.05,4.87 3.6,7.3 7.67,7.3 h 12.49 c 4.06,0 6.58,-2.43 7.56,-7.3 l 6.41,-33.18 c 0.21,-1.2 0.38,-2.35 0.52,-3.46 0.14,-1.11 0.24,-2.13 0.32,-3.07 0.07,-1.03 0.14,-2.09 0.21,-3.2 h 0.11 c 0,1.11 0.07,2.18 0.21,3.2 0.14,0.94 0.28,1.97 0.42,3.07 0.14,1.11 0.31,2.26 0.53,3.46 l 6.3,33.18 c 0.91,4.87 3.43,7.3 7.56,7.3 h 12.29 c 4.06,0 6.61,-2.39 7.66,-7.17 l 15.43,-75.71 c 0.56,-2.9 0.32,-5.17 -0.74,-6.79 -1.05,-1.62 -2.8,-2.43 -5.25,-2.43 h -8.82 c -4.27,0 -6.82,2.43 -7.67,7.3 l -7.35,45.6 c -0.21,1.2 -0.35,2.35 -0.42,3.46 -0.07,1.11 -0.14,2.13 -0.21,3.07 -0.07,1.03 -0.1,2.05 -0.1,3.08 h -0.21 c -0.07,-0.94 -0.14,-1.92 -0.21,-2.95 -0.14,-0.94 -0.26,-1.99 -0.37,-3.14 -0.11,-1.15 -0.26,-2.33 -0.47,-3.52 l -8.3,-45.6 c -0.84,-4.87 -3.33,-7.3 -7.45,-7.3 h -5.25 c -4.06,0 -6.62,2.43 -7.67,7.3 l -8.61,45.6 c -0.28,1.2 -0.47,2.35 -0.58,3.46 -0.1,1.11 -0.19,2.13 -0.26,3.07 -0.07,1.03 -0.14,2.05 -0.21,3.08 h -0.21 c 0,-1.03 -0.04,-2.05 -0.1,-3.08 -0.07,-0.94 -0.16,-1.96 -0.26,-3.07 -0.11,-1.11 -0.23,-2.26 -0.37,-3.46 l -6.51,-45.48 c -0.91,-4.95 -3.43,-7.43 -7.56,-7.43 h -9.14 c -2.45,0 -4.2,0.81 -5.25,2.43 -1.05,1.62 -1.3,3.89 -0.74,6.79 l 14.6,75.58 z"
     id="path21"
     clip-path="url(#clipPath66)" />
  <path
     class="cls-20"
     d="m 193.71,271.12 c 0,5.21 0.77,10.01 2.31,14.41 1.54,4.4 3.73,8.2 6.56,11.4 2.83,3.2 6.25,5.7 10.24,7.49 3.99,1.79 8.47,2.69 13.44,2.69 4.97,0 9.35,-0.9 13.33,-2.69 3.99,-1.79 7.38,-4.29 10.19,-7.49 2.8,-3.2 4.97,-7 6.51,-11.4 1.54,-4.4 2.31,-9.2 2.31,-14.41 V 221.8 c 0,-5.55 -2.28,-8.33 -6.82,-8.33 h -8.4 c -4.55,0 -6.83,2.78 -6.83,8.33 v 49.45 c 0,3.84 -0.94,6.68 -2.83,8.52 -1.89,1.84 -4.41,2.75 -7.56,2.75 -3.15,0 -5.65,-0.94 -7.51,-2.82 -1.86,-1.88 -2.78,-4.74 -2.78,-8.58 V 221.8 c 0,-5.55 -2.28,-8.33 -6.82,-8.33 h -8.51 c -4.55,0 -6.82,2.78 -6.82,8.33 v 49.32 z"
     id="path22"
     clip-path="url(#clipPath65)" />
  <path
     class="cls-3"
     d="m 242.85,297.25 c 0,5.55 2.31,8.33 6.93,8.33 h 8.4 c 4.55,0 6.82,-2.77 6.82,-8.33 v -26.77 c 0,-1.54 -0.05,-3.27 -0.16,-5.19 -0.1,-1.92 -0.23,-3.74 -0.37,-5.44 -0.14,-2.05 -0.28,-4.1 -0.42,-6.15 h 0.21 c 0.63,1.97 1.33,3.93 2.1,5.89 0.63,1.71 1.31,3.54 2.05,5.51 0.73,1.96 1.49,3.76 2.26,5.38 l 12.49,29.46 c 0.91,1.97 2.01,3.39 3.31,4.29 1.29,0.9 2.89,1.35 4.78,1.35 h 10.08 c 4.62,0 6.93,-2.77 6.93,-8.33 V 221.8 c 0,-5.55 -2.31,-8.33 -6.93,-8.33 h -8.4 c -4.55,0 -6.83,2.78 -6.83,8.33 v 26.9 c 0,1.54 0.03,3.29 0.11,5.25 0.07,1.97 0.17,3.8 0.32,5.51 0.14,2.05 0.31,4.1 0.52,6.15 h -0.21 c -0.63,-1.88 -1.33,-3.84 -2.1,-5.89 -0.63,-1.71 -1.31,-3.54 -2.05,-5.51 -0.74,-1.96 -1.49,-3.8 -2.26,-5.51 l -12.39,-29.59 c -0.91,-1.96 -2.01,-3.4 -3.31,-4.29 -1.3,-0.9 -2.92,-1.35 -4.88,-1.35 h -10.08 c -4.62,0 -6.93,2.78 -6.93,8.33 v 75.45 z"
     id="path23"
     clip-path="url(#clipPath64)" />
  <path
     class="cls-38"
     d="m 299.79,301.29 c 1.71,1.07 3.66,2.03 5.83,2.88 2.17,0.85 4.5,1.56 6.98,2.11 2.48,0.55 5.02,0.83 7.61,0.83 4.48,0 8.43,-0.81 11.87,-2.43 3.43,-1.62 6.32,-3.8 8.66,-6.53 2.34,-2.73 4.13,-5.89 5.35,-9.48 1.22,-3.59 1.84,-7.39 1.84,-11.4 0,-4.95 -0.79,-9.05 -2.36,-12.3 -1.57,-3.25 -3.55,-5.93 -5.93,-8.07 -2.38,-2.13 -4.95,-3.86 -7.72,-5.19 -2.77,-1.32 -5.34,-2.52 -7.72,-3.59 -2.38,-1.07 -4.36,-2.16 -5.93,-3.27 -1.57,-1.11 -2.36,-2.56 -2.36,-4.36 0,-1.19 0.42,-2.2 1.26,-3.01 0.84,-0.81 2.31,-1.22 4.41,-1.22 2.24,0 4.18,0.43 5.83,1.28 1.64,0.85 3.41,1.79 5.3,2.82 0.84,0.51 1.7,0.94 2.57,1.28 0.87,0.34 1.7,0.45 2.47,0.32 0.77,-0.13 1.52,-0.53 2.26,-1.22 0.74,-0.68 1.42,-1.79 2.05,-3.33 l 3.05,-7.3 c 0.91,-2.22 1.22,-4.29 0.95,-6.21 -0.28,-1.92 -1.33,-3.69 -3.15,-5.32 -0.98,-0.77 -2.22,-1.56 -3.73,-2.37 -1.51,-0.81 -3.17,-1.54 -4.99,-2.18 -1.82,-0.64 -3.78,-1.15 -5.88,-1.54 -2.1,-0.39 -4.24,-0.58 -6.4,-0.58 -3.99,0 -7.7,0.7 -11.13,2.11 -3.43,1.41 -6.41,3.4 -8.92,5.96 -2.52,2.56 -4.48,5.66 -5.88,9.29 -1.4,3.63 -2.1,7.67 -2.1,12.1 0,4.95 0.79,9.08 2.36,12.36 1.58,3.29 3.55,6.04 5.93,8.26 2.38,2.22 4.93,4.04 7.67,5.44 2.73,1.41 5.28,2.67 7.67,3.78 2.38,1.11 4.36,2.22 5.93,3.33 1.57,1.11 2.36,2.48 2.36,4.1 0,1.11 -0.38,2.07 -1.15,2.88 -0.77,0.81 -2.24,1.22 -4.41,1.22 -1.47,0 -2.83,-0.21 -4.1,-0.64 -1.26,-0.43 -2.41,-0.94 -3.46,-1.54 -1.05,-0.6 -1.98,-1.19 -2.78,-1.79 -0.81,-0.6 -1.52,-1.02 -2.15,-1.28 -2.03,-1.36 -3.8,-1.92 -5.3,-1.67 -1.51,0.26 -2.89,1.5 -4.15,3.72 l -3.99,7.05 c -1.61,2.9 -2.12,5.25 -1.52,7.04 0.59,1.79 1.56,3.29 2.89,4.48 1.05,1.02 2.43,2.07 4.15,3.14"
     id="path24"
     clip-path="url(#clipPath63)" />
  <path
     class="cls-8"
     d="m 334.96,278.49 c 1.85,5.85 4.51,10.89 7.98,15.12 3.47,4.23 7.68,7.54 12.65,9.93 4.97,2.39 10.53,3.59 16.7,3.59 3.08,0 5.93,-0.32 8.56,-0.96 2.62,-0.64 5.02,-1.47 7.19,-2.5 2.17,-1.02 4.13,-2.18 5.88,-3.46 1.75,-1.28 3.26,-2.52 4.51,-3.71 1.75,-1.54 2.69,-3.33 2.84,-5.38 0.14,-2.05 -0.39,-4.14 -1.58,-6.28 l -3.67,-6.15 c -1.26,-2.31 -2.7,-3.54 -4.31,-3.72 -1.61,-0.17 -3.36,0.51 -5.25,2.05 -1.82,1.54 -3.87,2.84 -6.14,3.91 -2.28,1.07 -4.6,1.6 -6.98,1.6 -3.29,0 -6.09,-0.72 -8.4,-2.18 -2.31,-1.45 -4.2,-3.31 -5.67,-5.57 -1.47,-2.26 -2.54,-4.8 -3.2,-7.62 -0.67,-2.82 -1,-5.59 -1,-8.33 0,-2.74 0.3,-5.29 0.89,-7.94 0.59,-2.65 1.61,-5.04 3.05,-7.17 1.43,-2.13 3.32,-3.86 5.67,-5.19 2.34,-1.32 5.27,-1.99 8.77,-1.99 2.03,0 4.04,0.41 6.04,1.22 1.99,0.81 3.9,1.82 5.72,3.01 3.99,2.9 7.1,2.09 9.35,-2.43 l 3.15,-6.4 c 1.19,-2.22 1.68,-4.33 1.47,-6.34 -0.21,-2.01 -1.19,-3.78 -2.94,-5.32 -2.45,-1.96 -5.65,-3.84 -9.61,-5.64 -3.96,-1.79 -8.7,-2.69 -14.23,-2.69 -5.95,0 -11.39,1.22 -16.33,3.65 -4.93,2.43 -9.17,5.79 -12.71,10.06 -3.54,4.27 -6.28,9.31 -8.24,15.12 -1.96,5.81 -2.94,12.04 -2.94,18.7 0,6.66 0.93,13.17 2.78,19.02"
     id="path25"
     clip-path="url(#clipPath62)" />
  <path
     class="cls-7"
     d="m 385.52,297.25 c 0,5.55 2.31,8.33 6.93,8.33 h 8.4 c 4.55,0 6.83,-2.77 6.83,-8.33 V 271.5 h 22.05 v 25.75 c 0,5.55 2.27,8.33 6.83,8.33 h 8.51 c 4.55,0 6.83,-2.77 6.83,-8.33 V 221.8 c 0,-5.55 -2.28,-8.33 -6.83,-8.33 h -8.51 c -4.55,0 -6.83,2.78 -6.83,8.33 v 26.77 H 407.68 V 221.8 c 0,-5.55 -2.28,-8.33 -6.83,-8.33 h -8.4 c -4.62,0 -6.93,2.78 -6.93,8.33 z"
     id="path26"
     clip-path="url(#clipPath61)" />
  <g
     class="cls-30"
     clip-path="url(#clippath-9)"
     id="g47">
    <g
       class="cls-34"
       id="g28">
      <g
         class="cls-23"
         clip-path="url(#clippath-10)"
         id="g27">
        <path
           class="cls-2"
           d="M 44.02,345.6 C 170.78,182.14 433.98,448.32 510.43,190.77"
           id="path27" />
      </g>
    </g>
    <text
       class="cls-9"
       transform="rotate(-53.47,387.27915,146.39338)"
       id="text28"><tspan
         x="0"
         y="0"
         id="tspan28" /></text>
    <text
       class="cls-17"
       transform="rotate(-51.24,401.0614,135.40193)"
       id="text29"><tspan
         x="0"
         y="0"
         id="tspan29" /></text>
    <text
       class="cls-15"
       transform="rotate(-48.16,423.78396,122.4113)"
       id="text30"><tspan
         x="0"
         y="0"
         id="tspan30" /></text>
    <text
       class="cls-10"
       transform="rotate(-45.75,442.54247,108.85152)"
       id="text31"><tspan
         x="0"
         y="0"
         id="tspan31" /></text>
    <text
       class="cls-11"
       transform="rotate(-42.45,473.22702,92.079287)"
       id="text32"><tspan
         x="0"
         y="0"
         id="tspan32" /></text>
    <text
       class="cls-14"
       transform="rotate(-39.9,499.19515,74.565524)"
       id="text33"><tspan
         x="0"
         y="0"
         id="tspan33" /></text>
    <text
       class="cls-12"
       transform="rotate(-36.46,541.46586,51.845983)"
       id="text34"><tspan
         x="0"
         y="0"
         id="tspan34" /></text>
    <text
       class="cls-13"
       transform="rotate(-32.97,593.0534,24.34384)"
       id="text35"><tspan
         x="0"
         y="0"
         id="tspan35" /></text>
    <text
       class="cls-16"
       transform="rotate(-29.48,656.45153,-9.4440423)"
       id="text36"><tspan
         x="0"
         y="0"
         id="tspan36" /></text>
    <path
       class="cls-21"
       d="m 95.88,311.81 c 1.01,0.91 2.11,1.57 3.29,1.98 1.18,0.41 2.4,0.58 3.65,0.51 1.25,-0.07 2.44,-0.37 3.58,-0.88 0.75,-0.34 1.37,-0.7 1.85,-1.09 0.49,-0.39 0.87,-0.76 1.16,-1.11 0.34,-0.4 0.6,-0.8 0.77,-1.22 l 0.05,-0.02 c 0,0 -0.02,0.02 -0.01,0.04 l 0.03,0.07 -0.1,-0.22 c 0.15,0.33 0.42,0.56 0.81,0.69 0.39,0.13 0.85,0.07 1.38,-0.17 l 0.98,-0.44 c 1.1,-0.5 1.4,-1.29 0.92,-2.37 l -3.36,-7.43 c -0.49,-1.08 -1.28,-1.38 -2.39,-0.88 l -3.73,1.68 c -1.08,0.49 -1.38,1.28 -0.89,2.36 l 0.54,1.2 c 0.5,1.1 1.29,1.4 2.37,0.92 l 0.73,-0.33 0.28,0.62 c -0.08,0.28 -0.22,0.56 -0.43,0.86 -0.17,0.24 -0.43,0.5 -0.77,0.79 -0.34,0.29 -0.79,0.55 -1.34,0.8 -0.58,0.26 -1.19,0.41 -1.82,0.44 -0.63,0.03 -1.24,-0.06 -1.83,-0.27 -0.59,-0.22 -1.14,-0.55 -1.65,-1.02 -0.51,-0.46 -0.93,-1.07 -1.27,-1.82 -0.25,-0.55 -0.41,-1.12 -0.49,-1.71 -0.07,-0.59 -0.03,-1.16 0.14,-1.72 0.17,-0.56 0.49,-1.09 0.95,-1.59 0.47,-0.5 1.12,-0.94 1.95,-1.32 0.63,-0.29 1.18,-0.45 1.65,-0.51 0.47,-0.05 0.97,-0.07 1.49,-0.07 0.61,0.02 1.09,-0.07 1.44,-0.29 0.34,-0.22 0.56,-0.61 0.64,-1.19 l 0.21,-1.6 c 0.07,-0.61 0,-1.07 -0.22,-1.39 -0.21,-0.32 -0.62,-0.54 -1.22,-0.67 -0.24,-0.05 -0.59,-0.08 -1.03,-0.09 -0.45,0 -0.96,0.02 -1.53,0.08 -0.58,0.06 -1.2,0.18 -1.87,0.35 -0.67,0.18 -1.36,0.42 -2.06,0.74 -1.4,0.63 -2.58,1.44 -3.55,2.43 -0.97,0.99 -1.69,2.09 -2.16,3.31 -0.47,1.22 -0.69,2.51 -0.64,3.89 0.05,1.37 0.39,2.75 1.01,4.14 0.66,1.45 1.49,2.63 2.5,3.54"
       id="path36" />
    <path
       class="cls-21"
       d="m 118.19,298.97 c -0.05,-0.21 -0.08,-0.43 -0.09,-0.65 -0.01,-0.22 0.02,-0.42 0.09,-0.62 0.07,-0.2 0.19,-0.38 0.35,-0.54 0.16,-0.17 0.39,-0.3 0.68,-0.39 0.45,-0.14 0.84,-0.07 1.16,0.22 0.32,0.29 0.53,0.65 0.63,1.08 z m -3.75,5.89 c 0.58,0.75 1.29,1.36 2.13,1.84 0.84,0.48 1.81,0.78 2.89,0.89 1.08,0.11 2.27,-0.03 3.56,-0.45 1.03,-0.33 1.9,-0.73 2.61,-1.21 0.71,-0.48 1.29,-0.94 1.74,-1.39 0.39,-0.41 0.56,-0.83 0.52,-1.26 -0.04,-0.43 -0.26,-0.86 -0.67,-1.28 l -0.68,-0.68 c -0.42,-0.42 -0.84,-0.61 -1.25,-0.58 -0.41,0.04 -0.83,0.25 -1.27,0.64 -0.3,0.27 -0.62,0.5 -0.96,0.68 -0.34,0.19 -0.68,0.33 -1.01,0.44 -0.5,0.16 -1.03,0.21 -1.58,0.13 -0.55,-0.07 -1.04,-0.37 -1.45,-0.89 l 6.33,-2.03 c 0.26,-0.08 0.49,-0.22 0.68,-0.4 0.19,-0.18 0.34,-0.39 0.44,-0.6 0.1,-0.21 0.17,-0.44 0.19,-0.68 0.02,-0.24 0,-0.46 -0.07,-0.67 -0.28,-0.87 -0.68,-1.65 -1.2,-2.32 -0.52,-0.68 -1.15,-1.22 -1.89,-1.62 -0.73,-0.4 -1.56,-0.64 -2.47,-0.72 -0.91,-0.08 -1.89,0.04 -2.93,0.38 -1.15,0.37 -2.11,0.88 -2.89,1.55 -0.78,0.66 -1.37,1.41 -1.77,2.25 -0.4,0.84 -0.62,1.74 -0.66,2.7 -0.04,0.96 0.1,1.92 0.4,2.88 0.27,0.85 0.7,1.65 1.27,2.4"
       id="path37" />
    <path
       class="cls-21"
       d="m 144.87,299.88 c 0.23,1.17 0.93,1.64 2.12,1.4 l 2.1,-0.41 c 1.17,-0.23 1.64,-0.93 1.41,-2.09 l -1.44,-7.38 c -0.19,-0.99 -0.48,-1.79 -0.86,-2.4 -0.38,-0.62 -0.82,-1.08 -1.32,-1.41 -0.5,-0.33 -1.04,-0.51 -1.61,-0.57 -0.57,-0.06 -1.14,-0.03 -1.72,0.08 -1.01,0.2 -1.85,0.59 -2.52,1.19 -0.68,0.6 -1.11,1.23 -1.29,1.9 h -0.05 c -0.52,-0.74 -1.16,-1.23 -1.93,-1.43 -0.77,-0.2 -1.53,-0.23 -2.28,-0.09 -0.56,0.11 -1.02,0.27 -1.4,0.5 -0.38,0.22 -0.7,0.47 -0.96,0.75 -0.26,0.28 -0.48,0.57 -0.64,0.88 -0.16,0.31 -0.3,0.62 -0.41,0.92 h -0.05 c -0.13,-0.67 -0.4,-1.14 -0.79,-1.39 -0.39,-0.25 -0.83,-0.33 -1.32,-0.23 l -1.86,0.36 c -1.17,0.23 -1.64,0.93 -1.41,2.09 l 2.05,10.48 c 0.23,1.17 0.92,1.64 2.09,1.41 l 2.1,-0.41 c 1.19,-0.23 1.66,-0.93 1.44,-2.1 l -0.76,-3.91 c -0.08,-0.39 -0.15,-0.81 -0.21,-1.23 -0.06,-0.43 -0.08,-0.82 -0.04,-1.19 0.04,-0.37 0.15,-0.69 0.33,-0.95 0.18,-0.26 0.47,-0.43 0.87,-0.51 0.25,-0.05 0.47,-0.01 0.65,0.11 0.18,0.12 0.31,0.35 0.37,0.7 l 1.27,6.49 c 0.23,1.17 0.92,1.64 2.09,1.41 l 2.1,-0.41 c 1.17,-0.23 1.64,-0.93 1.41,-2.09 l -0.76,-3.91 c -0.08,-0.39 -0.15,-0.81 -0.21,-1.23 -0.06,-0.43 -0.08,-0.82 -0.04,-1.19 0.04,-0.37 0.15,-0.69 0.33,-0.95 0.18,-0.26 0.47,-0.43 0.87,-0.51 0.25,-0.05 0.47,-0.01 0.65,0.11 0.18,0.12 0.31,0.35 0.37,0.7 l 1.27,6.49 z"
       id="path38" />
    <path
       class="cls-21"
       d="m 156.98,291.05 c 0,-0.22 0.01,-0.44 0.05,-0.65 0.04,-0.21 0.11,-0.41 0.22,-0.59 0.11,-0.18 0.26,-0.33 0.45,-0.46 0.19,-0.13 0.44,-0.21 0.75,-0.23 0.47,-0.04 0.84,0.11 1.09,0.46 0.25,0.35 0.38,0.75 0.39,1.19 l -2.95,0.27 z m -4.94,4.93 c 0.4,0.85 0.96,1.61 1.68,2.26 0.72,0.65 1.6,1.15 2.63,1.49 1.03,0.35 2.22,0.46 3.57,0.33 1.07,-0.1 2.01,-0.3 2.81,-0.62 0.8,-0.31 1.47,-0.64 2,-0.98 0.47,-0.32 0.73,-0.69 0.78,-1.12 0.05,-0.43 -0.07,-0.89 -0.38,-1.4 l -0.52,-0.81 c -0.32,-0.5 -0.69,-0.78 -1.1,-0.84 -0.41,-0.05 -0.87,0.06 -1.37,0.35 -0.35,0.2 -0.71,0.35 -1.09,0.46 -0.38,0.11 -0.74,0.18 -1.08,0.21 -0.53,0.05 -1.05,-0.02 -1.58,-0.21 -0.52,-0.19 -0.93,-0.59 -1.23,-1.18 l 6.61,-0.61 c 0.27,-0.03 0.52,-0.11 0.75,-0.25 0.23,-0.14 0.41,-0.3 0.56,-0.49 0.15,-0.19 0.26,-0.4 0.33,-0.62 0.07,-0.23 0.1,-0.45 0.08,-0.67 -0.08,-0.91 -0.31,-1.75 -0.67,-2.53 -0.37,-0.77 -0.86,-1.44 -1.49,-1.98 -0.63,-0.55 -1.38,-0.96 -2.25,-1.24 -0.87,-0.28 -1.85,-0.37 -2.94,-0.27 -1.2,0.11 -2.26,0.41 -3.16,0.88 -0.9,0.48 -1.64,1.08 -2.22,1.82 -0.58,0.74 -0.99,1.56 -1.23,2.5 -0.25,0.93 -0.32,1.9 -0.23,2.9 0.08,0.89 0.32,1.77 0.72,2.62"
       id="path39" />
    <path
       class="cls-21"
       d="m 166.73,297.61 c 0.05,1.19 0.67,1.76 1.86,1.71 l 2.14,-0.09 c 1.21,-0.05 1.78,-0.67 1.73,-1.86 L 172,286.7 c -0.05,-1.19 -0.68,-1.76 -1.89,-1.7 l -2.14,0.09 c -1.19,0.05 -1.76,0.67 -1.71,1.86 l 0.46,10.67 z m 3.24,-13.93 c 1.19,-0.05 1.76,-0.68 1.7,-1.89 l -0.02,-0.58 c -0.05,-1.19 -0.67,-1.76 -1.86,-1.7 l -1.95,0.08 c -1.19,0.05 -1.76,0.67 -1.71,1.86 l 0.02,0.58 c 0.05,1.21 0.67,1.78 1.86,1.73 l 1.95,-0.08 z"
       id="path40" />
    <path
       class="cls-21"
       d="m 173.37,297.21 c 0,1.19 0.58,1.79 1.77,1.8 l 2.14,0.02 c 1.21,0 1.82,-0.58 1.83,-1.77 l 0.04,-4.5 c 0,-0.36 0.03,-0.74 0.09,-1.11 0.06,-0.37 0.17,-0.71 0.32,-1.01 0.16,-0.3 0.38,-0.54 0.66,-0.72 0.29,-0.18 0.65,-0.27 1.09,-0.27 0.4,0 0.71,0.1 0.93,0.3 0.22,0.19 0.32,0.55 0.32,1.06 l -0.05,6.28 c 0,1.19 0.58,1.79 1.77,1.8 l 2.14,0.02 c 1.21,0 1.82,-0.58 1.83,-1.77 l 0.06,-7.52 c 0,-1.04 -0.14,-1.9 -0.43,-2.58 -0.3,-0.68 -0.69,-1.22 -1.17,-1.63 -0.48,-0.41 -1.03,-0.69 -1.64,-0.85 -0.61,-0.16 -1.24,-0.24 -1.88,-0.25 -1.15,0 -2.05,0.19 -2.69,0.61 -0.64,0.42 -1.16,0.98 -1.55,1.69 h -0.06 c 0.01,-1.34 -0.57,-2.01 -1.74,-2.02 l -1.89,-0.02 c -1.19,0 -1.79,0.58 -1.8,1.77 z"
       id="path41" />
    <path
       class="cls-21"
       d="m 191.01,298.58 c 0.31,0.15 0.68,0.3 1.09,0.44 0.41,0.14 0.87,0.27 1.37,0.37 0.5,0.11 1.02,0.18 1.57,0.21 0.95,0.05 1.81,-0.04 2.58,-0.25 0.77,-0.22 1.43,-0.53 1.97,-0.94 0.54,-0.41 0.97,-0.92 1.27,-1.51 0.31,-0.6 0.48,-1.25 0.51,-1.97 0.04,-0.82 -0.08,-1.5 -0.36,-2.02 -0.28,-0.53 -0.66,-0.96 -1.12,-1.28 -0.46,-0.33 -0.96,-0.58 -1.5,-0.76 -0.54,-0.18 -1.04,-0.34 -1.52,-0.46 -0.47,-0.12 -0.86,-0.25 -1.16,-0.36 -0.31,-0.12 -0.45,-0.27 -0.44,-0.45 0.02,-0.35 0.28,-0.51 0.79,-0.48 0.4,0.02 0.78,0.09 1.14,0.22 0.36,0.13 0.72,0.26 1.08,0.39 0.41,0.17 0.76,0.25 1.03,0.23 0.28,-0.01 0.5,-0.07 0.67,-0.17 0.17,-0.1 0.31,-0.23 0.42,-0.38 0.11,-0.15 0.19,-0.29 0.25,-0.41 l 0.42,-0.75 c 0.28,-0.48 0.38,-0.94 0.31,-1.37 -0.08,-0.43 -0.36,-0.79 -0.84,-1.07 -0.37,-0.22 -0.94,-0.44 -1.7,-0.65 -0.76,-0.21 -1.58,-0.34 -2.45,-0.39 -0.86,-0.04 -1.66,0.02 -2.41,0.18 -0.75,0.16 -1.42,0.43 -2.01,0.8 -0.59,0.37 -1.06,0.85 -1.41,1.44 -0.35,0.59 -0.55,1.27 -0.59,2.06 -0.04,0.84 0.08,1.53 0.36,2.07 0.28,0.54 0.65,0.97 1.11,1.31 0.46,0.34 0.96,0.59 1.5,0.78 0.54,0.18 1.04,0.34 1.51,0.48 0.47,0.13 0.86,0.26 1.16,0.38 0.3,0.12 0.45,0.28 0.44,0.48 0,0.15 -0.07,0.27 -0.2,0.37 -0.12,0.1 -0.34,0.15 -0.65,0.13 -0.53,-0.03 -1.01,-0.14 -1.44,-0.34 -0.43,-0.2 -0.72,-0.33 -0.86,-0.39 -0.57,-0.25 -1.05,-0.35 -1.43,-0.31 -0.38,0.04 -0.73,0.3 -1.07,0.75 l -0.5,0.72 c -0.34,0.48 -0.49,0.93 -0.45,1.36 0.03,0.43 0.3,0.82 0.79,1.15 0.18,0.12 0.42,0.26 0.73,0.41"
       id="path42" />
    <path
       class="cls-21"
       d="m 202.87,295.31 c 0.26,0.92 0.69,1.76 1.31,2.53 0.61,0.76 1.4,1.4 2.37,1.9 0.97,0.51 2.12,0.82 3.47,0.94 1.13,0.1 2.13,0.04 3,-0.18 0.87,-0.22 1.59,-0.47 2.15,-0.75 0.46,-0.25 0.75,-0.59 0.86,-1.01 0.11,-0.42 0.06,-0.89 -0.15,-1.4 l -0.34,-0.86 c -0.23,-0.55 -0.54,-0.89 -0.93,-1.02 -0.39,-0.13 -0.88,-0.07 -1.45,0.18 -0.38,0.15 -0.76,0.26 -1.13,0.33 -0.37,0.07 -0.72,0.09 -1.03,0.06 -0.53,-0.05 -0.97,-0.18 -1.31,-0.4 -0.35,-0.22 -0.62,-0.49 -0.83,-0.79 -0.2,-0.3 -0.34,-0.62 -0.41,-0.96 -0.07,-0.34 -0.1,-0.64 -0.07,-0.92 0.02,-0.27 0.09,-0.56 0.21,-0.86 0.12,-0.3 0.29,-0.58 0.53,-0.82 0.23,-0.25 0.53,-0.44 0.89,-0.57 0.36,-0.13 0.79,-0.18 1.28,-0.14 0.26,0.02 0.52,0.06 0.79,0.12 0.27,0.06 0.53,0.16 0.77,0.29 0.51,0.3 0.95,0.44 1.34,0.41 0.39,-0.03 0.76,-0.28 1.11,-0.74 l 0.62,-0.8 c 0.33,-0.45 0.5,-0.89 0.49,-1.32 0,-0.43 -0.24,-0.81 -0.68,-1.15 -0.45,-0.35 -1.03,-0.67 -1.76,-0.97 -0.73,-0.29 -1.61,-0.49 -2.65,-0.58 -1.35,-0.12 -2.55,0 -3.6,0.33 -1.05,0.34 -1.94,0.83 -2.68,1.47 -0.74,0.64 -1.31,1.39 -1.71,2.25 -0.41,0.85 -0.65,1.74 -0.73,2.65 -0.08,0.93 0,1.86 0.27,2.78"
       id="path43" />
    <path
       class="cls-21"
       d="m 225.64,300.47 c -0.14,1.18 0.38,1.84 1.58,1.99 l 2.13,0.26 c 1.18,0.14 1.84,-0.38 1.99,-1.56 l 0.91,-7.46 c 0.13,-1.04 0.08,-1.91 -0.14,-2.62 -0.22,-0.71 -0.54,-1.29 -0.98,-1.75 -0.43,-0.46 -0.95,-0.8 -1.55,-1.03 -0.6,-0.23 -1.22,-0.38 -1.85,-0.46 -0.76,-0.09 -1.51,-0.03 -2.25,0.18 -0.74,0.21 -1.37,0.64 -1.91,1.27 h -0.05 c 0.01,-0.1 0.03,-0.21 0.07,-0.33 0.01,-0.11 0.03,-0.24 0.06,-0.38 0.03,-0.14 0.05,-0.32 0.08,-0.52 l 0.49,-4.06 c 0.14,-1.18 -0.38,-1.84 -1.56,-1.99 l -2.12,-0.26 c -1.2,-0.15 -1.87,0.37 -2.01,1.55 l -1.95,16.05 c -0.14,1.18 0.38,1.84 1.58,1.99 l 2.12,0.26 c 1.18,0.14 1.84,-0.38 1.99,-1.56 l 0.54,-4.47 c 0.04,-0.36 0.12,-0.73 0.22,-1.09 0.1,-0.37 0.25,-0.69 0.44,-0.97 0.19,-0.28 0.44,-0.5 0.74,-0.64 0.3,-0.15 0.67,-0.19 1.11,-0.14 0.4,0.05 0.7,0.18 0.89,0.4 0.19,0.22 0.26,0.58 0.2,1.09 l -0.76,6.24 z"
       id="path44" />
    <path
       class="cls-21"
       d="m 238.94,298.36 c 0.53,-0.13 1.18,-0.15 1.96,-0.03 l 0.3,0.04 -0.04,0.27 c -0.08,0.53 -0.32,0.94 -0.72,1.24 -0.4,0.3 -0.87,0.41 -1.39,0.34 -0.42,-0.06 -0.69,-0.21 -0.82,-0.44 -0.13,-0.23 -0.18,-0.45 -0.16,-0.65 0.06,-0.38 0.35,-0.64 0.88,-0.77 m -6.02,2.21 c 0.13,0.56 0.36,1.06 0.69,1.52 0.33,0.45 0.76,0.84 1.29,1.16 0.53,0.32 1.14,0.53 1.85,0.63 1.05,0.15 1.91,0.05 2.58,-0.3 0.67,-0.35 1.24,-0.79 1.7,-1.32 h 0.05 c -0.09,1.27 0.4,1.98 1.49,2.14 l 1.6,0.23 c 1.18,0.17 1.85,-0.33 2.02,-1.51 l 0.99,-6.79 c 0.13,-0.91 0.1,-1.74 -0.1,-2.51 -0.2,-0.77 -0.55,-1.45 -1.06,-2.04 -0.5,-0.59 -1.14,-1.08 -1.92,-1.47 -0.77,-0.39 -1.67,-0.66 -2.68,-0.81 -1,-0.15 -1.92,-0.17 -2.76,-0.07 -0.85,0.1 -1.59,0.24 -2.22,0.42 -0.54,0.16 -0.9,0.44 -1.07,0.84 -0.17,0.4 -0.17,0.87 -0.01,1.41 l 0.26,0.87 c 0.18,0.56 0.45,0.94 0.83,1.12 0.38,0.19 0.86,0.2 1.44,0.04 0.38,-0.09 0.78,-0.16 1.19,-0.2 0.41,-0.04 0.79,-0.04 1.13,0.01 0.36,0.05 0.7,0.16 1.01,0.33 0.31,0.17 0.44,0.42 0.39,0.76 l -0.07,0.46 -0.27,-0.04 c -0.94,-0.14 -1.89,-0.19 -2.83,-0.17 -0.95,0.03 -1.81,0.17 -2.6,0.42 -0.79,0.25 -1.45,0.63 -2,1.14 -0.54,0.5 -0.88,1.17 -1,2 -0.08,0.58 -0.06,1.15 0.07,1.7"
       id="path45" />
    <path
       class="cls-21"
       d="m 248.58,303.75 c -0.19,1.17 0.3,1.86 1.48,2.04 l 2.11,0.34 c 1.19,0.19 1.88,-0.3 2.07,-1.47 l 1.23,-7.64 0.49,0.08 c 1.17,0.19 1.85,-0.3 2.04,-1.48 l 0.13,-0.84 c 0.19,-1.17 -0.3,-1.86 -1.48,-2.04 l -0.49,-0.08 0.06,-0.38 c 0.05,-0.29 0.21,-0.44 0.49,-0.46 0.28,-0.02 0.54,-0.03 0.78,-0.03 0.59,0.02 1.05,-0.08 1.38,-0.29 0.33,-0.22 0.54,-0.61 0.64,-1.19 l 0.2,-1.22 c 0.19,-1.19 -0.3,-1.88 -1.47,-2.07 l -0.51,-0.08 c -0.38,-0.06 -0.93,-0.09 -1.64,-0.1 -0.71,0 -1.45,0.12 -2.2,0.37 -0.75,0.25 -1.44,0.67 -2.07,1.27 -0.62,0.59 -1.03,1.45 -1.2,2.57 l -0.11,0.7 -0.11,-0.02 c -1.17,-0.19 -1.86,0.3 -2.04,1.48 l -0.13,0.84 c -0.19,1.17 0.3,1.86 1.48,2.04 l 0.11,0.02 -1.23,7.64 z"
       id="path46" />
    <path
       class="cls-21"
       d="m 260.54,302.28 c -0.19,1.12 -0.09,2.05 0.28,2.8 0.38,0.75 0.87,1.36 1.47,1.83 0.61,0.47 1.26,0.83 1.95,1.06 0.69,0.24 1.26,0.39 1.69,0.46 0.76,0.13 1.35,0.1 1.78,-0.09 0.43,-0.19 0.7,-0.61 0.81,-1.28 l 0.25,-1.52 c 0.05,-0.31 0.06,-0.56 0.03,-0.76 -0.03,-0.2 -0.1,-0.37 -0.22,-0.51 -0.12,-0.14 -0.28,-0.25 -0.49,-0.35 -0.21,-0.09 -0.47,-0.19 -0.79,-0.3 -0.76,-0.24 -1.07,-0.73 -0.95,-1.47 l 0.56,-3.36 1.03,0.17 c 1.15,0.19 1.83,-0.3 2.03,-1.47 l 0.14,-0.84 c 0.2,-1.17 -0.3,-1.86 -1.49,-2.06 l -0.97,-0.16 0.38,-2.3 c 0.2,-1.17 -0.3,-1.86 -1.49,-2.06 l -1.92,-0.32 c -1.17,-0.2 -1.86,0.29 -2.05,1.46 l -0.39,2.3 -0.35,-0.06 c -1.15,-0.19 -1.83,0.3 -2.03,1.47 l -0.14,0.84 c -0.2,1.17 0.28,1.86 1.44,2.05 l 0.16,0.03 -0.74,4.41 z"
       id="path47" />
  </g>
  <text
     class="cls-18"
     transform="rotate(9.64)"
     id="text47"
     x="316.86169"
     y="259.51376"><tspan
       x="316.86169"
       y="259.51376"
       id="tspan47" /></text>
  <g
     class="cls-22"
     clip-path="url(#clippath-11)"
     id="g49">
    <path
       class="cls-25"
       d="m 284.16,305.73 c 0.53,-0.12 1.18,-0.12 1.96,0 l 0.3,0.05 -0.05,0.27 c -0.09,0.52 -0.34,0.93 -0.75,1.22 -0.41,0.29 -0.88,0.39 -1.4,0.31 -0.41,-0.07 -0.69,-0.22 -0.81,-0.46 -0.13,-0.23 -0.18,-0.45 -0.14,-0.65 0.06,-0.38 0.36,-0.63 0.89,-0.75 m -6.06,2.1 c 0.12,0.56 0.34,1.07 0.66,1.53 0.32,0.46 0.74,0.86 1.26,1.19 0.52,0.33 1.13,0.55 1.84,0.67 1.05,0.18 1.91,0.09 2.59,-0.25 0.68,-0.34 1.26,-0.77 1.73,-1.28 h 0.05 c -0.12,1.27 0.36,1.99 1.45,2.17 l 1.6,0.27 c 1.17,0.2 1.86,-0.29 2.05,-1.46 l 1.14,-6.77 c 0.15,-0.9 0.13,-1.74 -0.05,-2.51 -0.19,-0.77 -0.52,-1.46 -1.02,-2.06 -0.49,-0.6 -1.12,-1.11 -1.89,-1.51 -0.77,-0.41 -1.65,-0.7 -2.67,-0.86 -0.99,-0.17 -1.91,-0.21 -2.76,-0.13 -0.85,0.08 -1.59,0.21 -2.23,0.38 -0.54,0.15 -0.9,0.42 -1.08,0.82 -0.18,0.4 -0.19,0.87 -0.04,1.41 l 0.24,0.88 c 0.16,0.57 0.43,0.94 0.81,1.14 0.38,0.19 0.85,0.22 1.43,0.07 0.38,-0.08 0.78,-0.14 1.2,-0.18 0.41,-0.03 0.79,-0.02 1.13,0.04 0.36,0.06 0.69,0.18 1,0.35 0.3,0.17 0.43,0.43 0.37,0.77 l -0.08,0.46 -0.27,-0.04 c -0.94,-0.16 -1.88,-0.23 -2.83,-0.23 -0.95,0 -1.82,0.13 -2.61,0.37 -0.79,0.24 -1.47,0.6 -2.02,1.09 -0.55,0.49 -0.9,1.15 -1.04,1.98 -0.1,0.58 -0.09,1.15 0.03,1.7"
       id="path48" />
    <path
       class="cls-25"
       d="m 308.6,313.61 c -0.18,1.18 0.33,1.86 1.52,2.04 l 2.12,0.32 c 1.18,0.18 1.85,-0.32 2.03,-1.49 l 1.14,-7.43 c 0.15,-0.99 0.15,-1.85 0,-2.55 -0.15,-0.71 -0.41,-1.3 -0.77,-1.77 -0.36,-0.47 -0.8,-0.83 -1.32,-1.08 -0.52,-0.25 -1.07,-0.41 -1.64,-0.5 -1.01,-0.15 -1.94,-0.06 -2.78,0.27 -0.84,0.33 -1.46,0.79 -1.86,1.35 h -0.06 c -0.23,-0.89 -0.68,-1.57 -1.33,-2.02 -0.65,-0.45 -1.36,-0.74 -2.12,-0.85 -0.56,-0.09 -1.06,-0.09 -1.48,0 -0.43,0.08 -0.81,0.21 -1.15,0.38 -0.34,0.17 -0.64,0.37 -0.9,0.61 -0.26,0.24 -0.49,0.48 -0.7,0.73 h -0.05 c 0.11,-0.69 0.01,-1.22 -0.27,-1.59 -0.29,-0.37 -0.67,-0.59 -1.16,-0.66 l -1.87,-0.29 c -1.18,-0.18 -1.85,0.32 -2.03,1.49 l -1.61,10.55 c -0.18,1.18 0.32,1.85 1.49,2.03 l 2.12,0.32 c 1.19,0.18 1.88,-0.31 2.06,-1.49 l 0.6,-3.93 c 0.06,-0.4 0.13,-0.81 0.22,-1.23 0.08,-0.42 0.21,-0.8 0.37,-1.14 0.16,-0.34 0.37,-0.6 0.63,-0.78 0.26,-0.18 0.59,-0.24 0.99,-0.18 0.25,0.04 0.44,0.15 0.57,0.32 0.13,0.18 0.17,0.44 0.12,0.78 l -1,6.54 c -0.18,1.18 0.32,1.85 1.49,2.03 l 2.12,0.32 c 1.18,0.18 1.85,-0.32 2.03,-1.49 l 0.6,-3.93 c 0.06,-0.4 0.13,-0.81 0.22,-1.23 0.08,-0.42 0.21,-0.8 0.37,-1.14 0.16,-0.34 0.37,-0.6 0.63,-0.78 0.26,-0.18 0.59,-0.24 0.99,-0.18 0.25,0.04 0.44,0.15 0.57,0.32 0.13,0.18 0.17,0.44 0.12,0.78 l -1,6.54 z"
       id="path49" />
  </g>
  <text
     class="cls-19"
     transform="rotate(7.48)"
     id="text49"
     x="353.86407"
     y="272.64404"><tspan
       x="353.86407"
       y="272.64404"
       id="tspan49" /></text>
  <g
     class="cls-24"
     clip-path="url(#clippath-12)"
     id="g60">
    <path
       class="cls-25"
       d="m 323.71,315.76 c -0.12,1.18 0.41,1.84 1.61,1.96 l 2.18,0.23 c 1.18,0.12 1.84,-0.41 1.96,-1.59 l 0.6,-5.7 1.53,0.16 2.32,6.51 c 0.38,0.9 1.05,1.41 1.99,1.51 l 2.57,0.27 c 0.71,0.07 1.2,-0.08 1.48,-0.45 0.28,-0.38 0.28,-0.9 0,-1.57 l -3.39,-8.44 v -0.05 c 0,0 4.7,-6.87 4.7,-6.87 0.39,-0.58 0.49,-1.09 0.3,-1.51 -0.19,-0.42 -0.65,-0.68 -1.36,-0.75 l -2.24,-0.24 c -0.95,-0.1 -1.7,0.25 -2.26,1.06 l -3.6,5.66 -1.53,-0.16 0.58,-5.49 c 0.12,-1.18 -0.4,-1.84 -1.59,-1.96 l -2.18,-0.23 c -1.2,-0.13 -1.86,0.4 -1.99,1.59 l -1.69,16.08 z"
       id="path50" />
    <path
       class="cls-25"
       d="m 341.96,313.42 c -0.1,1.33 0,2.4 0.27,3.21 0.27,0.81 0.66,1.44 1.17,1.9 0.51,0.46 1.1,0.78 1.79,0.95 0.68,0.18 1.38,0.29 2.09,0.34 0.64,0.05 1.11,-0.09 1.42,-0.39 0.31,-0.31 0.48,-0.74 0.52,-1.28 l 0.12,-1.67 c 0.03,-0.47 -0.05,-0.84 -0.26,-1.11 -0.21,-0.26 -0.51,-0.43 -0.89,-0.49 -0.2,-0.05 -0.34,-0.17 -0.42,-0.35 -0.08,-0.18 -0.1,-0.48 -0.07,-0.9 l 0.85,-11.85 c 0.08,-1.19 -0.47,-1.82 -1.65,-1.91 l -2.14,-0.15 c -1.2,-0.09 -1.85,0.46 -1.93,1.65 l -0.86,12.04 z"
       id="path51" />
    <path
       class="cls-25"
       d="m 356.75,307.6 c 0.04,-1.19 -0.54,-1.8 -1.73,-1.84 l -2.14,-0.07 c -1.21,-0.04 -1.83,0.54 -1.87,1.73 l -0.23,7.52 c -0.03,1.02 0.09,1.88 0.36,2.57 0.27,0.69 0.64,1.24 1.1,1.65 0.46,0.42 1,0.72 1.62,0.9 0.62,0.18 1.24,0.29 1.88,0.3 0.42,0.01 0.84,-0.01 1.25,-0.07 0.41,-0.06 0.8,-0.17 1.16,-0.34 0.36,-0.16 0.69,-0.39 1,-0.68 0.3,-0.29 0.56,-0.67 0.78,-1.12 h 0.05 c 0,0 -0.01,0.44 -0.01,0.44 -0.01,0.48 0.12,0.86 0.4,1.15 0.28,0.29 0.72,0.45 1.3,0.46 l 1.89,0.06 c 1.19,0.04 1.8,-0.54 1.84,-1.73 l 0.33,-10.67 c 0.04,-1.19 -0.54,-1.8 -1.73,-1.84 l -2.14,-0.07 c -1.21,-0.04 -1.83,0.54 -1.86,1.73 l -0.14,4.47 c -0.01,0.37 -0.05,0.74 -0.12,1.11 -0.07,0.37 -0.18,0.71 -0.33,1.01 -0.16,0.3 -0.36,0.53 -0.63,0.71 -0.26,0.18 -0.6,0.26 -1.02,0.24 -0.4,-0.01 -0.71,-0.12 -0.92,-0.32 -0.21,-0.2 -0.31,-0.55 -0.3,-1.07 l 0.19,-6.25 z"
       id="path52" />
    <path
       class="cls-25"
       d="m 368.28,318.66 c 0.03,1.19 0.64,1.77 1.83,1.73 l 2.14,-0.06 c 1.21,-0.03 1.79,-0.64 1.76,-1.83 l -0.21,-7.74 h 0.49 c 1.19,-0.05 1.77,-0.66 1.73,-1.85 L 376,308.06 c -0.03,-1.19 -0.64,-1.77 -1.83,-1.73 h -0.49 c 0,0 -0.01,-0.37 -0.01,-0.37 0,-0.29 0.12,-0.47 0.4,-0.55 0.27,-0.07 0.53,-0.13 0.76,-0.17 0.58,-0.09 1.02,-0.27 1.3,-0.54 0.29,-0.27 0.42,-0.7 0.4,-1.29 l -0.03,-1.24 c -0.03,-1.21 -0.64,-1.79 -1.83,-1.76 l -0.52,0.02 c -0.38,0.01 -0.93,0.08 -1.63,0.21 -0.7,0.13 -1.4,0.39 -2.09,0.77 -0.69,0.39 -1.29,0.93 -1.79,1.63 -0.5,0.7 -0.74,1.62 -0.71,2.75 l 0.02,0.71 h -0.11 c -1.19,0.04 -1.77,0.65 -1.73,1.83 l 0.02,0.85 c 0.03,1.19 0.64,1.77 1.83,1.73 h 0.11 c 0,0 0.21,7.73 0.21,7.73 z"
       id="path53" />
    <path
       class="cls-25"
       d="m 379.96,314.92 c 0.1,1.13 0.42,2.01 0.97,2.64 0.55,0.63 1.18,1.1 1.89,1.41 0.71,0.31 1.42,0.49 2.16,0.54 0.73,0.06 1.31,0.07 1.75,0.03 0.77,-0.07 1.33,-0.25 1.7,-0.54 0.37,-0.29 0.52,-0.77 0.47,-1.44 l -0.13,-1.53 c -0.03,-0.31 -0.08,-0.56 -0.16,-0.74 -0.08,-0.19 -0.19,-0.33 -0.34,-0.44 -0.15,-0.11 -0.33,-0.18 -0.56,-0.21 -0.22,-0.04 -0.5,-0.07 -0.83,-0.09 -0.79,-0.04 -1.22,-0.44 -1.29,-1.18 l -0.3,-3.39 1.04,-0.09 c 1.17,-0.1 1.7,-0.74 1.6,-1.93 l -0.07,-0.85 c -0.1,-1.18 -0.76,-1.72 -1.96,-1.62 l -0.98,0.09 -0.2,-2.32 c -0.1,-1.18 -0.76,-1.72 -1.96,-1.62 l -1.94,0.17 c -1.19,0.1 -1.73,0.75 -1.62,1.93 l 0.2,2.32 -0.36,0.03 c -1.17,0.1 -1.7,0.74 -1.59,1.93 l 0.07,0.85 c 0.1,1.19 0.74,1.73 1.9,1.62 h 0.16 c 0,0 0.39,4.44 0.39,4.44 z"
       id="path54" />
    <path
       class="cls-25"
       d="m 394.84,309.34 c -0.02,-0.22 -0.02,-0.44 0,-0.65 0.02,-0.21 0.08,-0.42 0.18,-0.6 0.1,-0.18 0.24,-0.35 0.42,-0.49 0.18,-0.14 0.42,-0.24 0.73,-0.29 0.47,-0.08 0.84,0.05 1.12,0.38 0.28,0.33 0.44,0.72 0.47,1.16 z m -4.55,5.29 c 0.46,0.82 1.08,1.53 1.85,2.12 0.77,0.59 1.68,1.02 2.74,1.29 1.06,0.27 2.25,0.29 3.59,0.06 1.06,-0.18 1.98,-0.46 2.75,-0.83 0.77,-0.37 1.41,-0.75 1.92,-1.13 0.44,-0.35 0.67,-0.74 0.69,-1.17 0.02,-0.43 -0.14,-0.88 -0.48,-1.37 l -0.57,-0.77 c -0.36,-0.48 -0.74,-0.73 -1.16,-0.75 -0.41,-0.02 -0.86,0.13 -1.34,0.45 -0.33,0.22 -0.68,0.4 -1.05,0.54 -0.37,0.14 -0.72,0.23 -1.06,0.29 -0.52,0.09 -1.05,0.06 -1.59,-0.09 -0.54,-0.15 -0.97,-0.51 -1.31,-1.09 l 6.55,-1.11 c 0.27,-0.05 0.51,-0.15 0.73,-0.3 0.21,-0.16 0.39,-0.33 0.52,-0.53 0.13,-0.2 0.23,-0.41 0.28,-0.65 0.05,-0.23 0.06,-0.46 0.03,-0.67 -0.15,-0.9 -0.44,-1.72 -0.86,-2.47 -0.42,-0.74 -0.97,-1.37 -1.64,-1.87 -0.67,-0.5 -1.45,-0.85 -2.34,-1.07 -0.89,-0.21 -1.87,-0.23 -2.96,-0.04 -1.19,0.2 -2.22,0.57 -3.08,1.12 -0.86,0.55 -1.56,1.2 -2.07,1.98 -0.51,0.78 -0.86,1.63 -1.04,2.58 -0.17,0.95 -0.18,1.92 0,2.91 0.15,0.88 0.46,1.74 0.92,2.56"
       id="path55" />
    <path
       class="cls-25"
       d="m 405.35,314.94 c 0.3,1.15 1.03,1.57 2.18,1.27 l 2.07,-0.55 c 1.17,-0.31 1.6,-1.04 1.29,-2.19 L 409.97,310 c -0.27,-1.01 -0.25,-1.89 0.06,-2.66 0.31,-0.76 0.96,-1.28 1.95,-1.54 1.13,-0.3 1.54,-1.03 1.23,-2.2 l -0.48,-1.8 c -0.15,-0.57 -0.37,-0.97 -0.65,-1.22 -0.28,-0.25 -0.7,-0.3 -1.25,-0.15 -0.41,0.11 -0.76,0.32 -1.07,0.64 -0.3,0.32 -0.57,0.68 -0.79,1.08 -0.22,0.4 -0.39,0.81 -0.51,1.24 -0.11,0.43 -0.18,0.81 -0.21,1.13 h -0.05 c -0.02,-0.07 -0.04,-0.16 -0.04,-0.23 -0.02,-0.07 -0.04,-0.15 -0.05,-0.24 -0.01,-0.09 -0.04,-0.19 -0.06,-0.29 l -0.14,-0.53 c -0.3,-1.15 -1.04,-1.57 -2.21,-1.26 l -1.83,0.49 c -1.15,0.3 -1.57,1.03 -1.27,2.18 l 2.74,10.32 z"
       id="path56" />
    <path
       class="cls-25"
       d="m 420.17,302.92 c 0.26,-0.58 0.66,-0.97 1.21,-1.18 0.6,-0.23 1.18,-0.17 1.75,0.16 0.57,0.33 0.99,0.89 1.29,1.66 0.31,0.82 0.34,1.52 0.09,2.09 -0.25,0.57 -0.68,0.97 -1.28,1.2 -0.65,0.25 -1.24,0.18 -1.77,-0.19 -0.53,-0.38 -0.94,-0.94 -1.23,-1.69 -0.3,-0.79 -0.32,-1.47 -0.05,-2.05 m -3.26,9.08 c 0.42,1.11 1.2,1.46 2.33,1.03 l 1.54,-0.58 c 0.51,-0.19 0.86,-0.49 1.03,-0.87 0.18,-0.39 0.2,-0.81 0.06,-1.27 l 0.05,-0.02 c 0.31,0.3 0.65,0.51 1.02,0.64 0.37,0.13 0.75,0.21 1.12,0.22 0.38,0.01 0.75,-0.02 1.12,-0.1 0.37,-0.08 0.71,-0.18 1.02,-0.3 0.86,-0.32 1.59,-0.79 2.21,-1.41 0.62,-0.61 1.09,-1.33 1.42,-2.15 0.33,-0.82 0.49,-1.72 0.48,-2.72 0,-1 -0.21,-2.03 -0.62,-3.11 -0.38,-1.01 -0.88,-1.88 -1.5,-2.6 -0.62,-0.72 -1.3,-1.29 -2.05,-1.7 -0.75,-0.41 -1.55,-0.65 -2.41,-0.72 -0.86,-0.07 -1.72,0.06 -2.59,0.39 -0.6,0.23 -1.08,0.51 -1.44,0.84 -0.36,0.33 -0.65,0.65 -0.85,0.94 -0.22,0.36 -0.38,0.72 -0.49,1.1 l -0.05,0.02 c -0.04,-0.1 -0.08,-0.23 -0.12,-0.4 -0.05,-0.14 -0.1,-0.29 -0.16,-0.45 -0.05,-0.17 -0.12,-0.36 -0.21,-0.58 l -1.26,-3.34 c -0.42,-1.11 -1.19,-1.46 -2.3,-1.04 l -2,0.76 c -1.13,0.43 -1.48,1.2 -1.06,2.31 l 5.71,15.12 z"
       id="path57" />
    <path
       class="cls-25"
       d="m 436.23,300.04 c 0.35,-0.42 0.87,-0.82 1.56,-1.18 l 0.27,-0.14 0.13,0.24 c 0.25,0.47 0.3,0.94 0.15,1.43 -0.15,0.48 -0.46,0.85 -0.93,1.1 -0.37,0.2 -0.68,0.24 -0.92,0.13 -0.24,-0.11 -0.41,-0.25 -0.51,-0.43 -0.18,-0.34 -0.1,-0.72 0.25,-1.14 m -3.54,5.33 c 0.43,0.37 0.92,0.64 1.46,0.81 0.54,0.17 1.11,0.23 1.72,0.17 0.61,-0.06 1.23,-0.25 1.86,-0.58 0.94,-0.5 1.57,-1.09 1.9,-1.77 0.33,-0.68 0.53,-1.37 0.6,-2.07 l 0.05,-0.03 c 0.67,1.07 1.49,1.35 2.46,0.84 l 1.43,-0.76 c 1.05,-0.56 1.3,-1.36 0.74,-2.41 l -3.21,-6.06 c -0.43,-0.81 -0.95,-1.46 -1.57,-1.96 -0.62,-0.5 -1.3,-0.84 -2.06,-1.02 -0.76,-0.18 -1.56,-0.2 -2.42,-0.05 -0.86,0.14 -1.74,0.45 -2.64,0.93 -0.89,0.47 -1.65,1 -2.27,1.58 -0.62,0.58 -1.14,1.13 -1.54,1.66 -0.34,0.45 -0.46,0.89 -0.36,1.31 0.1,0.42 0.37,0.81 0.82,1.15 l 0.72,0.55 c 0.47,0.35 0.92,0.49 1.34,0.41 0.42,-0.07 0.81,-0.35 1.18,-0.81 0.26,-0.3 0.54,-0.59 0.85,-0.87 0.31,-0.28 0.62,-0.5 0.92,-0.66 0.32,-0.17 0.66,-0.28 1.01,-0.33 0.35,-0.05 0.6,0.08 0.76,0.39 l 0.22,0.41 -0.24,0.13 c -0.84,0.45 -1.64,0.96 -2.38,1.54 -0.75,0.58 -1.36,1.21 -1.85,1.88 -0.48,0.67 -0.8,1.37 -0.94,2.1 -0.14,0.73 -0.02,1.46 0.38,2.21 0.27,0.52 0.63,0.96 1.06,1.33"
       id="path58" />
    <path
       class="cls-25"
       d="m 444.88,296.63 c 0.79,0.55 1.66,0.92 2.61,1.12 0.96,0.2 1.97,0.19 3.04,-0.04 1.07,-0.23 2.16,-0.72 3.28,-1.48 0.93,-0.64 1.67,-1.32 2.21,-2.05 0.54,-0.72 0.93,-1.37 1.18,-1.94 0.2,-0.49 0.2,-0.93 0.02,-1.33 -0.18,-0.4 -0.52,-0.72 -1.01,-0.99 l -0.8,-0.45 c -0.53,-0.28 -0.98,-0.35 -1.37,-0.19 -0.38,0.15 -0.72,0.5 -1.01,1.06 -0.2,0.36 -0.42,0.68 -0.67,0.97 -0.25,0.29 -0.49,0.52 -0.75,0.7 -0.44,0.3 -0.86,0.48 -1.27,0.52 -0.41,0.05 -0.79,0.02 -1.14,-0.08 -0.35,-0.1 -0.66,-0.26 -0.93,-0.48 -0.27,-0.21 -0.48,-0.44 -0.64,-0.66 -0.16,-0.22 -0.28,-0.49 -0.38,-0.8 -0.1,-0.31 -0.14,-0.63 -0.12,-0.97 0.02,-0.34 0.13,-0.67 0.33,-1.01 0.19,-0.33 0.49,-0.64 0.9,-0.92 0.21,-0.15 0.44,-0.28 0.69,-0.4 0.25,-0.12 0.51,-0.22 0.78,-0.27 0.58,-0.09 1.01,-0.27 1.29,-0.54 0.28,-0.27 0.41,-0.7 0.39,-1.28 l -0.03,-1.01 c -0.03,-0.56 -0.18,-1 -0.46,-1.33 -0.28,-0.33 -0.7,-0.48 -1.26,-0.45 -0.57,0.01 -1.23,0.14 -1.97,0.37 -0.75,0.24 -1.55,0.65 -2.41,1.24 -1.12,0.77 -1.97,1.61 -2.57,2.54 -0.6,0.93 -0.97,1.88 -1.13,2.84 -0.16,0.96 -0.12,1.9 0.11,2.82 0.23,0.92 0.6,1.76 1.12,2.51 0.53,0.77 1.18,1.43 1.97,1.97"
       id="path59" />
    <path
       class="cls-25"
       d="m 465.18,284.61 c 0.78,0.9 1.63,0.95 2.54,0.16 l 1.62,-1.4 c 0.9,-0.78 0.96,-1.62 0.18,-2.52 l -4.93,-5.68 c -0.68,-0.79 -1.36,-1.34 -2.03,-1.65 -0.67,-0.31 -1.32,-0.46 -1.95,-0.45 -0.63,0.01 -1.23,0.17 -1.8,0.46 -0.57,0.29 -1.1,0.65 -1.58,1.07 -0.58,0.5 -1.04,1.1 -1.37,1.79 -0.33,0.69 -0.45,1.45 -0.33,2.27 l -0.04,0.04 c -0.06,-0.07 -0.12,-0.16 -0.2,-0.27 -0.07,-0.08 -0.15,-0.18 -0.24,-0.3 -0.09,-0.12 -0.2,-0.25 -0.33,-0.4 l -2.68,-3.09 c -0.78,-0.9 -1.62,-0.96 -2.52,-0.18 l -1.62,1.4 c -0.91,0.79 -0.98,1.64 -0.2,2.53 l 10.6,12.2 c 0.78,0.9 1.62,0.95 2.54,0.16 l 1.62,-1.4 c 0.9,-0.78 0.96,-1.62 0.18,-2.52 l -2.95,-3.4 c -0.24,-0.28 -0.46,-0.57 -0.67,-0.89 -0.2,-0.32 -0.35,-0.64 -0.43,-0.97 -0.08,-0.33 -0.07,-0.66 0.02,-0.98 0.09,-0.32 0.31,-0.63 0.64,-0.92 0.3,-0.26 0.6,-0.4 0.89,-0.4 0.29,0 0.61,0.2 0.94,0.58 l 4.12,4.74 z"
       id="path60" />
  </g>
</svg>
